<svg xmlns="http://www.w3.org/2000/svg" width="478" height="478" viewBox="0 0 358.5 358.5" preserveAspectRatio="xMidYMid meet" role="img" aria-label="MidiMed logo dark on light"><path fill="#1e293b" d="M 333.664062 144.21875 L 305.765625 133.535156 L 301.152344 131.847656 L 317.238281 95.847656 C 324.328125 79.871094 320.953125 61.421875 308.578125 49.046875 C 300.589844 41.0625 290.128906 36.675781 278.992188 36.675781 C 273.027344 36.675781 267.292969 37.910156 261.777344 40.386719 L 225.78125 56.359375 L 224.09375 51.75 L 213.40625 23.847656 C 210.59375 16.648438 205.867188 10.6875 199.792969 6.523438 C 193.71875 2.363281 186.519531 0 178.757812 0 C 163.230469 0 149.621094 9.335938 144.109375 23.847656 L 133.421875 51.75 L 131.734375 56.359375 L 95.734375 40.386719 C 90.222656 37.910156 84.484375 36.675781 78.523438 36.675781 C 67.386719 36.675781 56.921875 41.0625 48.9375 49.046875 C 36.5625 61.421875 33.1875 79.871094 40.273438 95.847656 L 56.359375 131.847656 L 51.75 133.535156 L 23.847656 144.21875 C 9.335938 149.734375 0 163.34375 0 178.871094 C 0 194.394531 9.335938 208.007812 23.847656 213.519531 L 51.75 224.207031 L 56.359375 226.003906 L 40.273438 261.890625 C 33.1875 277.867188 36.5625 296.316406 48.9375 308.691406 C 56.921875 316.675781 67.386719 321.066406 78.523438 321.066406 C 84.484375 321.066406 90.222656 319.828125 95.734375 317.351562 L 131.734375 301.265625 L 133.535156 305.878906 L 144.21875 333.777344 C 149.734375 348.175781 163.34375 357.625 178.871094 357.625 C 194.394531 357.625 208.007812 348.289062 213.519531 333.777344 L 224.207031 305.878906 L 225.894531 301.265625 L 261.890625 317.351562 C 267.402344 319.828125 273.140625 321.066406 279.105469 321.066406 C 290.242188 321.066406 300.703125 316.675781 308.691406 308.691406 C 321.066406 296.316406 324.550781 277.980469 317.351562 261.890625 L 301.265625 225.894531 L 305.878906 224.207031 L 333.777344 213.519531 C 348.289062 208.007812 357.625 194.394531 357.625 178.871094 C 357.515625 163.34375 348.175781 149.734375 333.664062 144.21875 Z M 153.78125 60.859375 L 164.917969 31.835938 C 168.292969 22.949219 176.507812 22.273438 178.871094 22.273438 C 181.34375 22.273438 189.445312 22.949219 192.820312 31.835938 L 203.957031 60.859375 L 205.644531 65.472656 L 191.132812 71.886719 C 187.195312 73.574219 183.144531 74.472656 178.871094 74.472656 C 174.59375 74.472656 170.433594 73.574219 166.496094 71.886719 L 151.984375 65.472656 Z M 31.835938 192.707031 C 22.949219 189.332031 22.273438 181.230469 22.273438 178.757812 C 22.273438 176.28125 22.949219 168.183594 31.835938 164.808594 L 60.859375 153.671875 L 65.472656 151.984375 L 75.597656 174.707031 C 76.722656 177.292969 76.722656 180.332031 75.597656 182.917969 L 65.472656 205.644531 L 60.859375 203.84375 Z M 203.84375 296.765625 L 192.707031 325.789062 C 189.332031 334.675781 181.230469 335.351562 178.757812 335.351562 C 176.394531 335.351562 168.183594 334.675781 164.808594 325.789062 L 153.671875 296.765625 L 151.984375 292.152344 L 166.496094 285.742188 C 170.433594 284.054688 174.59375 283.152344 178.871094 283.152344 C 183.144531 283.152344 187.304688 284.054688 191.132812 285.742188 L 205.644531 292.265625 Z M 289.566406 289.566406 C 288.328125 290.804688 284.503906 294.066406 279.105469 294.066406 C 277.191406 294.066406 275.167969 293.726562 272.917969 292.714844 L 235.566406 276.066406 L 237.367188 271.453125 L 239.054688 266.839844 L 241.078125 261.441406 C 244.566406 252.105469 251.992188 244.792969 261.328125 241.191406 L 266.730469 239.167969 L 257.953125 219.367188 L 257.730469 218.917969 L 253.453125 220.605469 C 238.265625 226.34375 226.230469 238.378906 220.492188 253.566406 L 218.804688 257.84375 L 217.003906 262.453125 L 215.316406 267.066406 L 202.15625 261.214844 C 194.730469 257.84375 186.742188 256.265625 178.871094 256.265625 C 170.882812 256.265625 163.007812 257.953125 155.582031 261.214844 L 142.421875 267.066406 L 122.171875 276.066406 L 84.824219 292.714844 C 82.574219 293.726562 80.433594 294.066406 78.636719 294.066406 C 73.234375 294.066406 69.523438 290.914062 68.171875 289.566406 C 66.484375 287.878906 61.199219 281.691406 65.136719 272.917969 L 81.785156 235.566406 L 86.398438 237.367188 L 91.007812 239.167969 L 104.847656 244.453125 C 108.785156 245.917969 111.933594 249.066406 113.507812 253.003906 L 118.796875 266.839844 L 138.59375 258.066406 L 139.046875 257.84375 L 134.207031 245.128906 C 130.496094 235.34375 122.734375 227.46875 112.832031 223.753906 L 100.121094 218.917969 L 95.507812 217.117188 L 90.898438 215.429688 L 100.460938 194.054688 C 104.734375 184.496094 104.734375 173.46875 100.460938 163.792969 L 90.898438 142.421875 L 81.898438 122.171875 L 65.023438 84.824219 C 61.085938 76.160156 66.371094 69.859375 68.058594 68.171875 C 69.296875 66.933594 73.121094 63.671875 78.410156 63.671875 C 80.324219 63.671875 82.347656 64.121094 84.597656 65.136719 L 121.945312 81.785156 L 120.144531 86.398438 L 118.457031 91.007812 L 116.433594 96.410156 C 112.945312 105.746094 105.523438 113.058594 96.183594 116.660156 L 90.785156 118.683594 L 99.558594 138.484375 L 99.785156 138.933594 L 104.058594 137.246094 C 119.246094 131.507812 131.285156 119.472656 137.019531 104.285156 L 138.707031 100.007812 L 140.394531 95.398438 L 142.195312 90.785156 L 155.359375 96.632812 C 162.78125 99.898438 170.769531 101.585938 178.644531 101.585938 C 186.632812 101.585938 194.507812 99.898438 201.929688 96.632812 L 215.09375 90.785156 L 235.34375 81.785156 L 272.691406 65.136719 C 274.941406 64.121094 277.078125 63.671875 278.878906 63.671875 C 284.277344 63.671875 287.992188 66.933594 289.339844 68.171875 C 291.027344 69.859375 296.316406 76.046875 292.378906 84.824219 L 275.730469 122.171875 L 271.117188 120.371094 L 266.503906 118.683594 L 252.667969 113.394531 C 248.730469 111.933594 245.578125 108.785156 244.117188 104.847656 L 238.828125 91.007812 L 219.03125 99.785156 L 218.582031 100.007812 L 223.417969 112.722656 C 227.128906 122.507812 234.894531 130.382812 244.792969 134.097656 L 257.503906 138.933594 L 262.117188 140.734375 L 266.730469 142.421875 L 257.167969 163.792969 C 252.890625 173.355469 252.890625 184.382812 257.167969 194.054688 L 266.730469 215.429688 L 275.730469 235.679688 L 292.378906 273.027344 C 296.429688 281.578125 291.253906 287.765625 289.566406 289.566406 Z M 325.789062 192.707031 L 296.765625 203.84375 L 292.265625 205.644531 L 282.140625 182.917969 C 281.015625 180.332031 281.015625 177.40625 282.140625 174.707031 L 292.265625 151.984375 L 296.878906 153.671875 L 325.902344 164.808594 C 334.789062 168.183594 335.464844 176.28125 335.464844 178.757812 C 335.464844 181.230469 334.675781 189.332031 325.789062 192.707031 Z M 325.789062 192.707031"/></svg>